<svg width="500" height="500" viewBox="0 0 500 500" fill="none" xmlns="http://www.w3.org/2000/svg">
<rect width="500" height="500" rx="100" fill="#005AFF"/>
<rect width="500" height="500" rx="100" fill="#005AFF"/>
<path d="M388.041 395.949V381.977H389.949L395.613 391.04H394.52L400.165 381.977H402.073V395.949H399.39V386.608L399.906 386.767L395.971 393.087H394.143L390.208 386.767L390.744 386.608V395.949H388.041Z" fill="white"/>
<path d="M379 395.949V382.275H381.723V395.949H379ZM374.548 384.382V381.977H386.175V384.382H374.548Z" fill="white"/>
<path d="M405.328 249.65C405.338 269.171 401.501 288.502 394.036 306.539C386.572 324.576 375.626 340.966 361.825 354.771C348.023 368.576 331.637 379.526 313.602 386.995C295.566 394.464 276.236 398.306 256.715 398.301V299.226C269.622 298.87 281.881 293.493 290.884 284.238C299.888 274.983 304.925 262.581 304.925 249.669C304.925 236.757 299.888 224.355 290.884 215.1C281.881 205.845 269.622 200.468 256.715 200.113V101C296.133 101.01 333.933 116.676 361.803 144.552C389.672 172.428 405.328 210.232 405.328 249.65Z" fill="white"/>
<path d="M207.102 101.038H157.565V150.575H207.102V101.038Z" fill="white"/>
<path d="M157.565 150.575H108.027V200.113H157.565V150.575Z" fill="white"/>
<path d="M157.565 299.225H108.027V348.763H157.565V299.225Z" fill="white"/>
<path d="M207.102 348.763H157.565V398.301H207.102V348.763Z" fill="white"/>
<path d="M256.677 200.113H157.565V299.226H256.677V200.113Z" fill="white"/>
</svg>
