<svg width="500" height="500" viewBox="0 0 500 500" fill="none" xmlns="http://www.w3.org/2000/svg">
<path d="M500 250C500.016 282.83 493.563 315.341 481.01 345.676C468.456 376.01 450.047 403.574 426.836 426.791C403.625 450.008 376.066 468.424 345.734 480.985C315.403 493.547 282.893 500.008 250.063 499.999V333.375C271.77 332.777 292.387 323.734 307.529 308.169C322.67 292.604 331.142 271.746 331.142 250.031C331.142 228.316 322.67 207.458 307.529 191.894C292.387 176.329 271.77 167.286 250.063 166.688V0C316.356 0.0167746 379.929 26.3633 426.799 73.2456C473.669 120.128 500 183.707 500 250Z" fill="#005AFF"/>
<path d="M166.624 0.0634766H83.3121V83.3756H166.624V0.0634766Z" fill="#005AFF"/>
<path d="M83.3122 83.375H0V166.687H83.3122V83.375Z" fill="#005AFF"/>
<path d="M83.3122 333.375H0V416.687H83.3122V333.375Z" fill="#005AFF"/>
<path d="M166.624 416.688H83.3121V500H166.624V416.688Z" fill="#005AFF"/>
<path d="M250 166.688H83.3121V333.375H250V166.688Z" fill="#005AFF"/>
</svg>
